<?xml version="1.0" encoding="utf-8"?>
<svg viewBox="8.52 -0.01 203.81 222.39" width="203.81" height="222.39" xmlns="http://www.w3.org/2000/svg">
  <defs>
    <style>.cls-1{fill:#26b3e8;}.cls-2{fill:#004867;}</style>
  </defs>
  <path class="cls-1" d="M 207.44 221.15 C 207.44 221.84 208.02 222.38 208.71 222.38 L 210.64 222.38 C 211.33 222.38 211.87 221.84 211.87 221.15 L 211.87 197.44 C 211.87 195.17 211.29 193.28 209.83 191.97 C 208.87 191.01 207.17 190.35 205.67 190.35 C 204.9 190.35 204.2 190.5 203.59 190.7 C 202.9 190.93 202.32 191.24 201.89 191.24 C 201.54 191.24 201.24 191.12 200.93 190.97 L 200.74 190.85 C 200.35 190.62 200.01 190.43 199.51 190.43 C 199.05 190.43 198.62 190.62 198.35 190.93 C 198.04 191.2 197.89 191.59 197.89 192.32 L 197.89 221.15 C 197.89 221.84 198.43 222.38 199.12 222.38 L 201.09 222.38 C 201.78 222.38 202.32 221.84 202.32 221.15 L 202.32 197.75 C 202.32 196.59 202.51 195.78 203.05 195.24 C 203.51 194.74 204.17 194.47 204.9 194.47 C 205.59 194.47 206.25 194.74 206.75 195.24 C 207.25 195.78 207.44 196.59 207.44 197.75 L 207.44 221.15 Z M 174.06 221.15 C 174.06 221.84 174.6 222.38 175.29 222.38 L 177.26 222.38 C 177.95 222.38 178.49 221.84 178.49 221.15 L 178.49 210.43 C 178.49 210.04 178.8 209.58 179.38 209.58 L 182.73 209.58 C 183.23 209.58 183.62 209.97 183.62 210.43 L 183.62 221.15 C 183.62 221.84 184.2 222.38 184.89 222.38 L 186.82 222.38 C 187.51 222.38 188.05 221.84 188.05 221.15 L 188.05 197.71 C 188.05 192.74 184.89 190.31 181.07 190.31 C 177.25 190.31 174.06 192.74 174.06 197.71 L 174.06 221.15 Z M 183.62 204.69 C 183.62 205.15 183.23 205.54 182.73 205.54 L 179.38 205.54 C 178.8 205.54 178.49 205.08 178.49 204.69 L 178.49 198.18 C 178.49 195.52 179.45 194.48 181.07 194.48 C 182.69 194.48 183.61 195.6 183.61 198.18 L 183.61 204.69 Z M 159.88 221.15 C 159.88 221.84 160.42 222.38 161.11 222.38 L 163.08 222.38 C 163.77 222.38 164.31 221.84 164.31 221.15 L 164.31 197.44 C 164.31 192.24 160.72 190.35 157.72 190.35 C 156.79 190.35 155.83 190.5 154.91 190.89 C 154.06 191.24 153.41 191.62 152.83 191.62 C 152.33 191.62 151.75 191.31 151.09 191 C 150.28 190.58 149.39 190.38 148.47 190.38 C 147.85 190.38 147.24 190.46 146.62 190.69 C 145.97 190.92 145.35 191.23 144.92 191.23 C 144.57 191.23 144.34 191.11 144.03 190.96 L 143.84 190.84 C 143.46 190.61 143.07 190.42 142.61 190.42 C 141.76 190.42 140.99 190.96 140.99 192.31 L 140.99 221.14 C 140.99 221.83 141.53 222.37 142.22 222.37 L 144.18 222.37 C 144.87 222.37 145.41 221.83 145.41 221.14 L 145.41 197.78 C 145.41 195.47 146.45 194.46 147.91 194.46 C 149.26 194.46 150.42 195.35 150.42 197.78 L 150.42 221.14 C 150.42 221.83 151 222.37 151.69 222.37 L 153.62 222.37 C 154.31 222.37 154.85 221.83 154.85 221.14 L 154.85 197.78 C 154.85 195.47 155.89 194.46 157.35 194.46 C 158.7 194.46 159.82 195.35 159.86 197.78 L 159.86 221.14 Z"/>
  <path class="cls-2" d="M 131.01 191.85 C 131.01 191.16 130.47 190.58 129.78 190.58 L 127.81 190.58 C 127.12 190.58 126.58 191.12 126.58 191.81 L 126.58 221.14 C 126.58 221.83 127.12 222.37 127.81 222.37 L 129.78 222.37 C 130.47 222.37 131.01 221.83 131.01 221.14 L 131.01 191.84 L 131.01 191.85 Z M 111.47 191.81 C 111.47 191.12 110.93 190.58 110.24 190.58 L 108.27 190.58 C 107.58 190.58 107.04 191.12 107.04 191.81 L 107.04 221.14 C 107.04 221.83 107.58 222.37 108.27 222.37 L 116.71 222.37 C 117.4 222.37 117.94 221.83 117.94 221.14 L 117.94 219.29 C 117.94 218.6 117.4 218.06 116.71 218.06 L 112.35 218.06 C 111.81 218.06 111.46 217.67 111.46 217.17 L 111.46 191.81 L 111.47 191.81 Z M 92.08 191.81 C 92.08 191.12 91.54 190.58 90.85 190.58 L 88.88 190.58 C 88.19 190.58 87.65 191.12 87.65 191.81 L 87.65 221.14 C 87.65 221.83 88.19 222.37 88.88 222.37 L 97.32 222.37 C 98.01 222.37 98.55 221.83 98.55 221.14 L 98.55 219.29 C 98.55 218.6 98.01 218.06 97.32 218.06 L 92.96 218.06 C 92.42 218.06 92.07 217.67 92.07 217.17 L 92.07 191.81 L 92.08 191.81 Z M 77.28 222.38 C 77.97 222.38 78.51 221.84 78.51 221.15 L 78.51 219.3 C 78.51 218.61 77.97 218.07 77.28 218.07 L 73.04 218.07 C 72.5 218.07 72.15 217.68 72.15 217.18 L 72.15 209.43 C 72.15 208.93 72.5 208.54 73.04 208.54 L 76.89 208.54 C 77.58 208.54 78.12 208 78.12 207.31 L 78.12 205.46 C 78.12 204.77 77.58 204.23 76.89 204.23 L 73.04 204.23 C 72.5 204.23 72.15 203.84 72.15 203.34 L 72.15 195.78 C 72.15 195.28 72.5 194.89 73.04 194.89 L 77.28 194.89 C 77.97 194.81 78.51 194.35 78.51 193.66 L 78.51 191.81 C 78.51 191.12 77.97 190.58 77.28 190.58 L 68.95 190.58 C 68.26 190.58 67.72 191.12 67.72 191.81 L 67.72 221.14 C 67.72 221.83 68.26 222.37 68.95 222.37 L 77.28 222.37 L 77.28 222.38 Z M 46.44 190.58 C 45.75 190.58 45.21 191.12 45.21 191.81 L 45.21 193.66 C 45.21 194.35 45.75 194.89 46.44 194.89 L 48.91 194.89 C 49.41 194.89 49.8 195.28 49.8 195.78 L 49.8 221.14 C 49.8 221.83 50.34 222.37 51.03 222.37 L 52.96 222.37 C 53.69 222.37 54.23 221.83 54.23 221.14 L 54.23 195.78 C 54.23 195.28 54.58 194.89 55.12 194.89 L 57.55 194.89 C 58.24 194.89 58.78 194.35 58.78 193.66 L 58.78 191.81 C 58.78 191.12 58.24 190.58 57.55 190.58 L 46.45 190.58 L 46.44 190.58 Z M 32.49 221.15 C 32.49 221.84 33.07 222.38 33.76 222.38 L 35.69 222.38 C 36.38 222.38 36.92 221.84 36.92 221.15 L 36.92 213 L 36.92 197.44 C 36.92 195.17 36.34 193.28 34.88 191.97 C 33.92 191.01 32.22 190.35 30.72 190.35 C 29.95 190.35 29.25 190.5 28.64 190.7 C 27.95 190.93 27.37 191.24 26.94 191.24 C 26.59 191.24 26.28 191.12 25.98 190.97 L 25.79 190.85 C 25.4 190.62 25.06 190.43 24.56 190.43 C 24.1 190.43 23.67 190.62 23.4 190.93 C 23.09 191.2 22.94 191.58 22.94 192.32 L 22.94 221.15 C 22.94 221.84 23.48 222.38 24.17 222.38 L 26.14 222.38 C 26.83 222.38 27.37 221.84 27.37 221.15 L 27.37 197.75 C 27.37 196.59 27.56 195.78 28.1 195.24 C 28.56 194.74 29.22 194.47 29.95 194.47 C 30.64 194.47 31.3 194.74 31.8 195.24 C 32.3 195.78 32.49 196.59 32.49 197.75 L 32.49 221.15 Z M 12.95 191.85 C 12.95 191.16 12.41 190.58 11.72 190.58 L 9.75 190.58 C 9.06 190.58 8.52 191.12 8.52 191.81 L 8.52 221.14 C 8.52 221.83 9.06 222.37 9.75 222.37 L 11.72 222.37 C 12.41 222.37 12.95 221.83 12.95 221.14 L 12.95 191.84 L 12.95 191.85 Z"/>
  <path class="cls-1" d="M 72.58 165.72 C 44.8 153.94 26.86 126.84 26.86 96.67 C 26.86 71.48 39.4 48.12 60.42 34.17 L 61.72 36.13 C 41.37 49.64 29.21 72.27 29.21 96.67 C 29.21 125.89 46.6 152.15 73.5 163.55 L 72.58 165.71 Z"/>
  <path class="cls-2" d="M 101.93 180.75 C 76.43 180.75 51.76 169.09 35.67 148.51 L 37.52 147.07 C 57.06 172.07 89.63 183.53 120.5 176.26 C 157.62 167.52 183.46 134.83 183.34 96.77 L 183.37 96.77 C 183.33 96.29 183.32 95.63 183.32 94.7 C 183.32 93.46 183.32 91.8 183.32 90.14 L 183.32 83.51 C 183.32 83.51 185.66 83.51 185.66 83.51 C 185.66 87.55 185.66 93.27 185.67 95.63 L 185.67 95.63 L 185.67 96.76 C 185.73 115.38 179.42 133.76 167.91 148.53 C 156.22 163.52 139.57 174.18 121.03 178.55 C 114.69 180.04 108.28 180.77 101.92 180.77"/>
  <path class="cls-2" d="M 178.59 30.98 C 178.59 30.07 179.01 29.8 179.82 29.8 L 183.37 29.8 L 184.14 29.86 L 184.79 29.8 L 186.08 29.86 L 186.67 29.92 C 187.81 30 188.9 30.15 190.02 30.39 C 194.36 31.31 198.08 33.25 201.37 36.38 L 202.48 37.51 C 205.57 41.01 207.48 45.34 208.12 50.07 L 208.37 52.99 L 208.37 57.9 C 208.37 58.69 207.91 59.49 207.59 60.2 C 207.47 60.46 207.2 60.99 207.25 61.26 L 207.64 62.38 L 208.37 64.43 L 210.99 71.83 C 211.06 72.03 211.16 72.43 211.17 72.64 C 211.17 72.79 211.13 72.99 211.09 73.14 C 210.86 74.13 210.13 74.63 209.2 74.63 L 206.67 74.63 L 207.45 77.18 C 207.62 77.68 207.79 78.14 207.4 78.6 C 207.19 78.84 206.56 79.04 206.26 79.15 L 205.26 79.48 C 205.38 79.78 205.93 80.54 206.14 80.85 C 206.34 81.13 206.57 81.47 206.53 81.84 C 206.43 82.66 205.2 83.13 204.82 83.71 C 204.72 83.87 204.73 84.02 204.73 84.2 L 204.73 85.69 C 204.71 87.82 203.46 89.83 201.49 90.46 C 200.44 90.8 200 90.71 198.96 90.59 C 197.38 90.41 195.76 89.86 194.25 89.35 C 191.06 88.27 187.93 86.73 185.25 84.6 C 183.21 82.98 179.7 78.82 178.96 76.19 C 178.55 74.73 178.58 73.46 178.58 71.41 L 178.58 30.98 Z"/>
  <path class="cls-1" d="M 206.6 77.74 M 179.76 30.98 L 179.76 71.8 C 179.76 73.58 179.76 74.66 180.09 75.86 C 180.76 78.21 184.07 82.16 185.98 83.68 C 188.37 85.58 191.28 87.11 194.63 88.24 C 196.03 88.72 197.62 89.25 199.09 89.42 L 199.34 89.45 C 200.16 89.55 200.41 89.58 201.12 89.34 C 202.53 88.88 203.53 87.37 203.55 85.67 L 203.55 84.19 C 203.55 83.92 203.55 83.5 203.83 83.06 C 204.08 82.66 204.45 82.38 204.81 82.11 C 204.96 82 205.18 81.83 205.3 81.7 C 205.26 81.63 205.2 81.56 205.17 81.5 L 205.05 81.33 C 204.56 80.63 204.29 80.22 204.16 79.9 L 204.88 78.35 L 205.97 77.99 C 206.07 77.96 206.27 77.89 206.42 77.82 C 206.4 77.75 206.37 77.66 206.35 77.59 L 205.54 74.96 L 206.66 73.45 L 209.19 73.45 C 209.73 73.45 209.87 73.17 209.94 72.87 C 209.96 72.76 209.98 72.69 209.99 72.63 C 209.99 72.6 209.93 72.35 209.88 72.21 L 206.1 61.48 C 205.99 60.92 206.21 60.39 206.47 59.84 L 206.52 59.73 C 206.58 59.59 206.65 59.44 206.72 59.3 C 206.95 58.8 207.2 58.28 207.2 57.9 L 207.2 53.04 L 206.95 50.17 C 206.35 45.7 204.5 41.57 201.6 38.29 L 200.53 37.21 C 197.45 34.28 193.92 32.42 189.77 31.54 C 188.75 31.32 187.7 31.18 186.57 31.1 L 185.96 31.04 L 184.8 30.98 L 184.04 31.03 L 183.28 30.97 L 179.81 30.97 C 179.81 30.97 179.77 30.97 179.75 30.97 L 179.75 30.97 C 179.75 30.97 179.75 30.97 179.75 30.97 Z M 200.18 91.86 C 199.81 91.86 199.46 91.82 199.07 91.77 L 198.83 91.74 C 197.11 91.54 195.4 90.96 193.88 90.45 C 190.28 89.24 187.13 87.57 184.53 85.51 C 182.35 83.78 178.66 79.42 177.84 76.5 C 177.41 74.98 177.41 73.64 177.42 71.79 L 177.42 30.98 C 177.42 29.49 178.3 28.63 179.83 28.63 L 183.38 28.63 L 184.13 28.68 L 184.84 28.63 L 186.78 28.75 C 187.98 28.84 189.13 29 190.26 29.24 C 194.85 30.21 198.75 32.27 202.18 35.53 L 203.32 36.69 C 206.57 40.37 208.61 44.93 209.28 49.91 L 209.54 52.99 L 209.54 57.9 C 209.54 58.8 209.15 59.63 208.84 60.29 C 208.78 60.42 208.72 60.55 208.66 60.67 L 208.59 60.82 C 208.55 60.9 208.49 61.03 208.45 61.14 L 209.47 64.03 L 212.09 71.43 C 212.09 71.43 212.32 72.11 212.33 72.61 C 212.33 72.9 212.28 73.16 212.23 73.36 C 211.89 74.88 210.72 75.8 209.19 75.8 L 208.24 75.8 L 208.56 76.83 C 208.75 77.39 209.09 78.4 208.29 79.35 C 207.99 79.7 207.54 79.92 207.05 80.1 L 207.1 80.17 C 207.35 80.53 207.78 81.15 207.69 81.97 C 207.57 82.96 206.8 83.55 206.24 83.98 C 206.14 84.06 205.99 84.17 205.9 84.25 L 205.9 85.68 C 205.87 88.43 204.24 90.79 201.85 91.57 C 201.17 91.79 200.66 91.86 200.18 91.86"/>
  <path class="cls-2" d="M 70.82 41.12 L 61.8 22.12 L 88.6 12.61 L 89.13 13.21 C 89.13 13.21 90.35 14.55 91.55 14.04 L 92.48 16.19 C 90.68 16.97 88.99 16.18 87.96 15.33 L 65.04 23.46 L 71.96 38.03 L 93.21 28.41 C 93.05 26.92 93.36 24.97 95.17 24.08 L 96.21 26.18 C 95.13 26.71 95.66 28.77 95.67 28.79 L 95.93 29.75 L 95.02 30.17 L 70.83 41.12 Z"/>
  <path class="cls-2" d="M 62.49 31.07 C 62.24 31.25 61.42 32.06 62.45 33.99 C 63.13 35.26 64.4 35.08 64.71 35.01 L 80.06 28.16 L 78.22 24.14 L 62.48 31.06 Z M 64.27 37.4 C 63 37.4 61.35 36.91 60.38 35.09 C 58.62 31.79 60.23 29.68 61.32 29.03 L 61.45 28.96 L 79.4 21.06 L 83.18 29.34 L 65.41 37.25 C 65.11 37.33 64.72 37.39 64.28 37.39"/>
  <path class="cls-2" d="M 64.54 33.67 C 65.09 33.57 65.45 33.04 65.34 32.49 C 65.24 31.94 64.71 31.58 64.16 31.69 C 63.61 31.79 63.25 32.32 63.36 32.87 C 63.46 33.42 63.99 33.78 64.54 33.67"/>
  <path class="cls-2" d="M 64.38 32.68 L 64.38 32.68 Z M 64.36 34.68 C 63.42 34.68 62.58 34.01 62.4 33.06 C 62.19 31.98 62.91 30.93 63.99 30.73 C 64.51 30.63 65.04 30.74 65.48 31.04 C 65.92 31.34 66.22 31.79 66.32 32.32 C 66.42 32.84 66.31 33.37 66.01 33.81 C 65.71 34.25 65.26 34.55 64.73 34.65 L 64.73 34.65 C 64.61 34.67 64.48 34.68 64.36 34.68"/>
  <path class="cls-2" d="M 93.53 16.08 C 93.46 16.08 93.38 16.08 93.31 16.08 C 91.21 16.2 89.61 18 89.73 20.1 C 89.79 21.12 90.24 22.05 91 22.72 C 91.76 23.4 92.74 23.74 93.75 23.68 C 95.85 23.56 97.45 21.76 97.34 19.66 C 97.28 18.64 96.83 17.71 96.07 17.04 C 95.37 16.41 94.47 16.07 93.54 16.07 M 93.53 26.03 C 92.02 26.03 90.58 25.48 89.44 24.47 C 88.21 23.38 87.49 21.87 87.39 20.23 C 87.2 16.84 89.8 13.93 93.18 13.74 C 96.58 13.56 99.48 16.15 99.67 19.53 C 99.76 21.17 99.21 22.75 98.12 23.98 C 97.02 25.21 95.52 25.93 93.88 26.03 C 93.76 26.03 93.64 26.03 93.52 26.03"/>
  <path class="cls-2" d="M 97.86 27.98 L 97.51 27.15 C 97.36 26.83 96.7 25.77 94.69 26.46 L 93.93 24.24 C 96.63 23.32 98.35 24.37 99.19 25.44 L 101.14 25.18 L 98.81 12.03 L 95.68 12.63 C 95.51 13.99 94.82 15.69 92.91 16.14 L 92.37 13.86 C 93.49 13.6 93.37 11.77 93.37 11.75 L 93.29 10.71 L 100.7 9.27 L 103.87 27.18 L 97.85 27.98 Z"/>
  <path class="cls-1" d="M 123.85 19.22 C 125.98 18.14 125.69 17.14 127.09 16.23 C 128.5 15.32 129.89 14.94 129.88 13.86 C 129.88 12.78 127.07 11.5 124.63 12.56 C 122.18 13.62 120.12 15.87 119.2 17.32 C 118.29 18.78 116.41 19.42 117.32 20.61 C 118.23 21.8 120.07 22.1 121.31 20.95 C 122.55 19.79 122.69 19.81 123.84 19.22"/>
  <path class="cls-2" d="M 118.34 19.98 C 118.62 20.29 118.99 20.47 119.38 20.5 C 119.67 20.52 120.12 20.47 120.53 20.09 C 121.68 19.02 122.02 18.83 122.92 18.37 L 123.32 18.17 C 124.28 17.68 124.58 17.27 124.95 16.75 C 125.27 16.3 125.67 15.75 126.46 15.23 C 126.86 14.97 127.25 14.75 127.62 14.55 C 127.96 14.36 128.44 14.1 128.64 13.91 C 128.17 13.5 126.57 12.98 125.1 13.62 C 123.03 14.52 121.11 16.49 120.2 17.93 C 119.8 18.57 119.27 19.06 118.85 19.46 C 118.69 19.61 118.47 19.82 118.34 19.97 M 119.51 22.84 C 119.4 22.84 119.3 22.84 119.19 22.83 C 118.09 22.74 117.08 22.19 116.41 21.32 C 115.17 19.71 116.58 18.39 117.26 17.75 C 117.62 17.42 117.98 17.07 118.23 16.69 C 119.36 14.89 121.64 12.58 124.18 11.48 C 126.26 10.58 128.5 11.02 129.79 11.86 C 130.61 12.39 131.07 13.1 131.07 13.84 C 131.08 15.33 129.85 16.01 128.76 16.61 C 128.44 16.79 128.09 16.98 127.74 17.2 C 127.32 17.47 127.13 17.74 126.86 18.12 C 126.42 18.74 125.86 19.51 124.39 20.26 L 123.98 20.47 C 123.24 20.84 123.09 20.91 122.14 21.8 C 121.41 22.48 120.49 22.84 119.52 22.84"/>
  <path class="cls-1" d="M 113.37 6.5 C 106.91 8.3 103.4 8.29 101.33 9.8 C 100.21 10.61 99.02 12.44 99.56 18.17 C 100.1 23.91 100.08 25.39 102 25.93 C 103.98 26.48 105.41 26.68 108.61 27.05 C 111.81 27.43 112.6 27.61 113.84 27.36 C 117.49 26.6 117.59 20.23 120.01 18.36 C 122.43 16.49 123.51 16.5 125.14 14.11 C 126.77 11.72 128.59 12.36 126.62 8.47 C 124.65 4.59 125.26 3.99 122.13 4.16 C 119 4.33 117.09 5.46 113.38 6.5"/>
  <path class="cls-2" d="M 122.96 5.3 C 122.75 5.3 122.5 5.31 122.18 5.33 C 120.29 5.43 118.86 5.93 117.05 6.55 C 116.08 6.88 114.98 7.26 113.67 7.63 C 111.04 8.36 108.89 8.8 107.15 9.16 C 104.67 9.67 103.04 10 102 10.75 C 100.77 11.65 100.33 14.11 100.7 18.07 L 100.81 19.28 C 101.25 24.04 101.38 24.55 102.29 24.8 C 104.17 25.32 105.54 25.51 108.72 25.89 L 110.19 26.07 C 112.15 26.31 112.74 26.39 113.58 26.21 C 115.09 25.9 115.85 23.94 116.66 21.86 C 117.32 20.16 118 18.4 119.26 17.43 C 120.12 16.76 120.81 16.33 121.41 15.95 C 122.52 15.25 123.19 14.83 124.14 13.44 C 124.69 12.64 125.26 12.12 125.68 11.74 C 126.43 11.07 126.54 10.96 125.54 9 C 125.1 8.14 124.79 7.43 124.54 6.87 C 123.95 5.55 123.84 5.3 122.94 5.3 M 112.67 28.65 C 111.96 28.65 111.15 28.55 109.9 28.39 L 108.44 28.21 C 105.13 27.82 103.69 27.62 101.65 27.05 C 99.09 26.34 98.92 24.47 98.46 19.48 L 98.35 18.27 C 97.88 13.3 98.6 10.3 100.6 8.84 C 102.05 7.78 103.99 7.39 106.67 6.84 C 108.37 6.49 110.48 6.06 113.03 5.35 C 114.27 5 115.29 4.65 116.27 4.31 C 118.17 3.65 119.82 3.09 122.04 2.96 C 125.14 2.79 125.65 3.58 126.68 5.89 C 126.92 6.43 127.22 7.1 127.63 7.92 C 129.19 10.99 128.8 12.07 127.25 13.47 C 126.86 13.82 126.46 14.18 126.07 14.75 C 124.85 16.54 123.83 17.18 122.66 17.92 C 122.1 18.27 121.46 18.67 120.7 19.27 C 119.95 19.85 119.39 21.3 118.84 22.7 C 117.89 25.15 116.81 27.92 114.05 28.49 C 113.57 28.59 113.14 28.63 112.67 28.63"/>
  <path class="cls-1" d="M 112.44 20.84 C 109.65 23.66 109.17 26.26 110.89 27.41 C 112.61 28.56 118.55 30.89 119.83 31.44 C 121.12 32 121.49 33.39 122.51 31.62 C 123.53 29.85 124.75 28.66 124.86 27.72 C 124.97 26.78 122.18 25.5 120.84 23.99 C 119.5 22.48 118.66 19.54 116.77 19.59 C 114.87 19.63 114.43 18.82 112.44 20.83"/>
  <path class="cls-2" d="M 113.28 21.67 L 113.28 21.67 C 111.8 23.17 110.97 24.66 111.07 25.66 C 111.11 26.01 111.25 26.25 111.54 26.44 C 112.81 27.29 116.97 29 118.97 29.82 C 119.56 30.06 120.03 30.26 120.3 30.37 C 120.79 30.58 121.18 30.88 121.46 31.1 C 121.47 31.08 121.48 31.06 121.5 31.04 C 121.93 30.29 122.39 29.65 122.79 29.08 C 123.11 28.64 123.49 28.1 123.64 27.78 C 123.37 27.5 122.74 27.05 122.3 26.73 C 121.51 26.16 120.62 25.51 119.97 24.78 C 119.46 24.21 119.05 23.52 118.65 22.84 C 118.07 21.86 117.4 20.75 116.81 20.77 C 116.25 20.78 115.79 20.73 115.43 20.69 C 114.61 20.59 114.36 20.57 113.28 21.66 M 121.58 33.66 C 120.92 33.66 120.43 33.27 120.06 32.97 C 119.83 32.79 119.62 32.62 119.38 32.51 C 119.12 32.4 118.66 32.21 118.09 31.97 C 115.01 30.7 111.6 29.27 110.25 28.37 C 109.37 27.78 108.85 26.92 108.75 25.88 C 108.57 24.14 109.59 22.05 111.62 20 C 113.38 18.23 114.38 18.19 115.7 18.35 C 116.02 18.39 116.35 18.43 116.76 18.41 C 118.69 18.37 119.81 20.17 120.67 21.62 C 121.03 22.23 121.37 22.8 121.73 23.2 C 122.21 23.74 122.99 24.31 123.68 24.8 C 125.02 25.77 126.18 26.61 126.03 27.84 C 125.93 28.71 125.39 29.46 124.7 30.42 C 124.33 30.94 123.91 31.53 123.53 32.19 C 123.19 32.77 122.7 33.46 121.89 33.62 C 121.78 33.64 121.67 33.65 121.57 33.65"/>
  <path class="cls-1" d="M 122.28 27.95 C 118.32 32.59 122.45 32.29 124.52 34.7 C 126.6 37.11 127.73 38.89 129.77 36.54 C 131.81 34.19 130.43 32.03 129.2 30.53 C 127.96 29.03 125.13 24.61 122.28 27.95"/>
  <path class="cls-2" d="M 124.47 27.9 C 124.28 27.9 123.81 27.95 123.16 28.71 C 121.8 30.31 121.77 30.92 121.79 31.07 C 121.83 31.36 122.5 31.76 123.08 32.12 C 123.83 32.58 124.69 33.11 125.4 33.93 L 125.92 34.54 C 126.65 35.4 127.55 36.47 127.97 36.47 L 127.97 36.47 C 128.02 36.47 128.3 36.43 128.88 35.77 C 130.05 34.42 129.89 33.2 128.29 31.27 C 128.16 31.11 128.01 30.92 127.84 30.71 C 127.08 29.74 125.67 27.93 124.51 27.9 C 124.5 27.9 124.49 27.9 124.47 27.9 M 127.97 38.81 L 127.96 38.81 C 126.46 38.81 125.38 37.53 124.13 36.05 L 123.63 35.46 C 123.16 34.91 122.5 34.51 121.86 34.11 C 120.85 33.49 119.69 32.78 119.48 31.43 C 119.29 30.25 119.88 28.94 121.38 27.18 C 122.32 26.07 123.35 25.51 124.56 25.55 C 126.83 25.6 128.62 27.89 129.69 29.26 C 129.84 29.45 129.98 29.63 130.09 29.77 C 130.95 30.8 133.55 33.95 130.65 37.3 C 129.77 38.32 128.89 38.81 127.97 38.81"/>
  <path class="cls-1" d="M 134.55 11.03 C 136.74 12.33 138.77 13.02 139.09 13.73 C 139.41 14.44 137.32 17.03 133.82 15.94 C 130.31 14.85 126.16 15.71 125.73 13.63 C 125.3 11.55 123.88 10.76 125.68 10.25 C 127.48 9.74 129.23 7.97 130.79 8.56 C 132.35 9.15 133.41 10.36 134.55 11.03"/>
  <path class="cls-2" d="M 126.13 11.34 C 126.13 11.34 126.16 11.4 126.17 11.43 C 126.39 11.91 126.7 12.56 126.87 13.4 C 126.96 13.84 128.65 14 129.88 14.11 C 131.2 14.23 132.71 14.37 134.15 14.82 C 136.07 15.42 137.31 14.61 137.76 14.08 C 137.4 13.86 136.82 13.56 136.32 13.32 C 135.6 12.96 134.79 12.55 133.93 12.04 C 133.44 11.75 132.99 11.39 132.55 11.05 C 131.87 10.52 131.17 9.97 130.36 9.66 C 129.87 9.48 129 9.95 128.16 10.4 C 127.51 10.75 126.85 11.11 126.12 11.34 M 135.47 17.38 C 134.84 17.38 134.17 17.28 133.45 17.06 C 132.24 16.68 130.86 16.55 129.65 16.44 C 127.36 16.23 125 16.01 124.55 13.87 C 124.43 13.3 124.21 12.83 124.02 12.42 C 123.72 11.78 123.38 11.05 123.74 10.28 C 124.07 9.56 124.81 9.28 125.33 9.13 C 125.86 8.98 126.43 8.67 127.02 8.35 C 128.26 7.67 129.67 6.91 131.17 7.47 C 132.32 7.9 133.2 8.6 133.98 9.21 C 134.38 9.53 134.76 9.82 135.11 10.03 C 135.9 10.5 136.67 10.89 137.35 11.23 C 138.79 11.95 139.75 12.43 140.12 13.26 C 140.44 13.97 140.2 14.84 139.47 15.67 C 138.65 16.59 137.25 17.39 135.45 17.39"/>
  <path class="cls-1" d="M 134.22 13.83 C 135.83 13.93 136.17 15.66 137.43 18.68 C 138.69 21.7 139.19 22.86 136.33 22.53 C 133.48 22.19 132.95 21.14 132.63 18.12 C 132.31 15.1 131.81 13.69 134.22 13.84"/>
  <path class="cls-2" d="M 133.54 15.02 C 133.48 15.35 133.58 16.23 133.67 16.94 C 133.71 17.27 133.75 17.62 133.79 17.99 C 134.08 20.74 134.38 21.12 136.46 21.36 C 136.8 21.4 137.04 21.41 137.2 21.41 C 137.07 20.9 136.7 20 136.36 19.18 C 136.11 18.58 135.91 18.08 135.73 17.62 C 134.93 15.59 134.65 15.03 134.14 15 C 133.81 14.98 133.63 15 133.54 15.02 M 137.15 23.76 C 136.83 23.76 136.5 23.73 136.18 23.7 C 132.6 23.28 131.8 21.6 131.45 18.24 C 131.41 17.88 131.37 17.54 131.33 17.22 C 131.12 15.51 130.97 14.27 131.81 13.39 C 132.51 12.65 133.55 12.62 134.28 12.66 C 136.35 12.79 137.04 14.54 137.91 16.77 C 138.09 17.22 138.28 17.71 138.5 18.23 C 139.45 20.52 140.02 21.87 139.21 22.94 C 138.72 23.58 137.96 23.76 137.15 23.76"/>
  <path class="cls-1" d="M 141.01 17.37 C 142.56 20.66 144.53 23.65 143.54 22.9 C 142.55 22.15 140.16 24.46 138.86 22.07 C 137.57 19.69 133.91 14.1 136.79 13.65 C 139.67 13.19 140.17 15.61 141 17.37"/>
  <path class="cls-2" d="M 137.49 14.77 C 137.34 14.77 137.17 14.79 136.98 14.82 C 136.89 14.83 136.86 14.85 136.86 14.85 C 136.54 15.64 138.61 19.26 139.29 20.45 C 139.52 20.85 139.73 21.21 139.9 21.53 C 140.22 22.11 140.44 22.15 141.65 21.83 C 141.75 21.8 141.84 21.78 141.94 21.75 C 141.87 21.63 141.81 21.51 141.75 21.39 C 141.22 20.4 140.55 19.17 139.95 17.89 C 139.82 17.62 139.7 17.33 139.58 17.05 C 138.91 15.46 138.53 14.79 137.5 14.79 M 140.6 24.37 C 139.65 24.37 138.59 24.02 137.84 22.66 C 137.68 22.36 137.48 22.01 137.26 21.63 C 135.41 18.4 133.95 15.58 134.8 13.8 C 135.13 13.11 135.78 12.65 136.62 12.52 C 140 11.98 141.05 14.49 141.74 16.14 C 141.85 16.4 141.95 16.65 142.07 16.89 C 142.65 18.12 143.29 19.32 143.81 20.28 C 145.02 22.52 145.38 23.2 144.55 23.92 C 144.38 24.07 143.77 24.49 142.95 23.94 C 142.79 23.96 142.47 24.04 142.26 24.1 C 141.84 24.21 141.24 24.37 140.6 24.37"/>
  <path class="cls-1" d="M 132.59 23.19 C 131.37 25.72 131.12 29.54 132.52 30.25 C 133.91 30.95 135.25 31.61 135.7 27.88 C 136.14 24.15 137.71 25.47 137.97 23.2 C 138.24 20.93 137.64 21.58 135.62 21.34 C 134.273 21.18 133.263 21.797 132.59 23.19"/>
  <path class="cls-2" d="M 134.42 22.4 C 134.36 22.4 134.32 22.4 134.29 22.41 C 134.23 22.49 133.94 23.1 133.65 23.69 L 133.65 23.69 C 132.48 26.12 132.64 28.84 133.07 29.2 C 133.35 29.34 133.88 29.61 134.08 29.61 L 134.08 29.61 C 134.08 29.61 134.36 29.21 134.53 27.73 C 134.81 25.36 135.54 24.58 136.32 23.93 C 136.66 23.65 136.74 23.58 136.8 23.05 C 136.82 22.85 136.84 22.69 136.84 22.57 C 136.81 22.57 136.77 22.57 136.74 22.57 C 136.4 22.57 135.98 22.55 135.47 22.49 C 135.06 22.44 134.64 22.39 134.41 22.39 M 134.08 31.95 C 133.3 31.95 132.56 31.57 131.98 31.28 C 129.68 30.12 130.17 25.48 131.53 22.67 C 132.69 20.26 133.11 19.85 135.75 20.16 C 136.16 20.21 136.51 20.22 136.8 20.22 C 137.49 20.24 138.2 20.25 138.73 20.86 C 139.29 21.5 139.23 22.39 139.12 23.32 C 138.96 24.67 138.41 25.23 137.81 25.73 C 137.4 26.07 137.04 26.37 136.85 28 C 136.61 30.04 136.08 31.18 135.12 31.69 C 134.77 31.88 134.42 31.95 134.08 31.95"/>
  <path class="cls-1" d="M 141.35 22.01 C 143.75 22.29 143.67 22.92 142.86 26.33 C 142.05 29.75 142.05 32.58 140.12 32.35 C 138.19 32.12 137.41 31.86 137.85 28.13 C 138.29 24.4 138.14 21.64 141.34 22.01"/>
  <path class="cls-2" d="M 140.8 23.15 C 140.46 23.15 140.21 23.21 140.05 23.34 C 139.5 23.78 139.34 25.33 139.17 26.96 C 139.13 27.38 139.08 27.81 139.03 28.26 C 138.71 31 138.82 31.01 140.27 31.18 C 140.35 31.18 140.39 31.18 140.4 31.18 C 140.74 31.01 141.08 29.26 141.28 28.21 C 141.41 27.54 141.55 26.81 141.73 26.05 C 141.96 25.08 142.27 23.77 142.2 23.37 C 142.11 23.33 141.85 23.24 141.21 23.17 C 141.06 23.15 140.92 23.14 140.79 23.14 M 140.38 33.53 C 140.25 33.53 140.12 33.53 139.98 33.51 C 137 33.16 136.23 31.87 136.69 27.98 C 136.74 27.54 136.78 27.12 136.83 26.72 C 137.06 24.49 137.26 22.56 138.57 21.5 C 139.31 20.91 140.25 20.69 141.48 20.84 C 142.44 20.95 143.51 21.15 144.12 22.01 C 144.84 23.04 144.52 24.38 144 26.59 C 143.83 27.31 143.7 28.01 143.57 28.65 C 143.11 31.05 142.63 33.53 140.38 33.53"/>
  <path class="cls-2" d="M 114.85 25.75 C 115.51 25.83 116.1 25.36 116.18 24.7 C 116.26 24.04 115.79 23.44 115.13 23.37 C 114.47 23.29 113.87 23.76 113.8 24.42 C 113.72 25.08 114.19 25.68 114.85 25.75"/>
  <path class="cls-2" d="M 115.01 24.58 L 114.99 24.58 C 114.99 24.58 115 24.58 115.01 24.58 M 115 26.93 C 114.91 26.93 114.81 26.93 114.72 26.91 C 114.09 26.84 113.53 26.52 113.14 26.02 C 112.75 25.52 112.57 24.9 112.65 24.27 C 112.73 23.64 113.04 23.08 113.54 22.68 C 114.04 22.29 114.66 22.11 115.29 22.19 C 115.92 22.26 116.48 22.58 116.87 23.08 C 117.26 23.58 117.44 24.2 117.36 24.83 C 117.29 25.46 116.97 26.02 116.47 26.41 C 116.05 26.74 115.54 26.92 115.01 26.92"/>
  <path class="cls-1" d="M 127.39 4.1 C 124.73 5.37 121.12 3.11 122.02 8.02 C 122.92 12.93 126.96 10.44 130.9 9.79 C 134.84 9.14 134.77 6.96 134.41 5.21 C 133.98 3.1 132.6 1.62 127.38 4.11"/>
  <path class="cls-2" d="M 131.77 3.97 C 131.06 3.97 129.87 4.22 127.9 5.16 L 127.9 5.16 C 126.82 5.68 125.66 5.72 124.73 5.76 C 124.15 5.78 123.34 5.81 123.19 6 C 123.16 6.04 122.93 6.38 123.19 7.81 C 123.36 8.74 123.66 9.35 124.07 9.61 C 124.85 10.1 126.42 9.69 128.08 9.25 C 128.93 9.02 129.82 8.79 130.72 8.64 C 131.58 8.5 132.69 8.19 133.14 7.54 C 133.44 7.1 133.48 6.48 133.27 5.45 C 133.08 4.5 132.76 4.25 132.54 4.13 C 132.39 4.05 132.14 3.98 131.77 3.98 M 125.03 12.18 C 124.23 12.18 123.49 12.02 122.81 11.59 C 121.81 10.95 121.18 9.86 120.88 8.24 C 120.56 6.52 120.71 5.35 121.36 4.54 C 122.18 3.51 123.49 3.46 124.64 3.42 C 125.43 3.39 126.25 3.36 126.9 3.05 C 129.96 1.59 132.08 1.27 133.6 2.03 C 134.64 2.55 135.29 3.52 135.58 4.98 C 135.81 6.12 135.96 7.59 135.08 8.87 C 134.33 9.95 133.03 10.64 131.11 10.96 C 130.31 11.09 129.49 11.31 128.68 11.52 C 127.4 11.86 126.17 12.19 125.03 12.19"/>
  <path class="cls-2" d="M 125.47 7.73 L 125.45 7.75 C 125.45 7.75 125.47 7.75 125.47 7.73 M 125.45 9.51 C 125.38 9.51 125.31 9.51 125.24 9.5 C 124.27 9.38 123.57 8.5 123.68 7.52 C 123.74 7.05 123.97 6.63 124.35 6.33 C 124.72 6.03 125.19 5.9 125.66 5.96 C 126.13 6.02 126.55 6.25 126.85 6.63 C 127.14 7 127.28 7.47 127.22 7.94 C 127.11 8.84 126.34 9.51 125.45 9.51"/>
  <path class="cls-1" d="M 138.66 1.38 C 136.04 1.69 132.02 1.54 132.94 5.16 C 133.86 8.78 135.75 7.67 139.31 7.27 C 142.87 6.87 144.2 7.01 144.12 4.28 C 144.04 1.55 144.14 0.72 138.66 1.37"/>
  <path class="cls-2" d="M 138.8 2.55 L 138.8 2.55 C 138.47 2.59 138.12 2.62 137.76 2.65 C 136.44 2.77 134.62 2.94 134.14 3.62 C 133.96 3.88 133.94 4.3 134.09 4.88 C 134.58 6.82 134.9 6.77 137.41 6.37 C 137.95 6.28 138.55 6.19 139.2 6.11 L 140.14 6.01 C 142.053 5.81 142.997 5.247 142.97 4.32 L 142.97 4.15 C 142.95 3.52 142.92 2.67 142.78 2.54 C 142.6 2.39 141.85 2.19 138.82 2.54 M 135.63 8.91 C 133.99 8.91 132.54 8.27 131.83 5.45 C 131.51 4.18 131.64 3.1 132.24 2.26 C 133.35 0.69 135.59 0.49 137.56 0.31 C 137.9 0.28 138.23 0.25 138.54 0.21 C 141.47 -0.14 143.26 -0.15 144.31 0.76 C 145.24 1.56 145.27 2.73 145.31 4.08 L 145.31 4.25 C 145.42 7.82 143.2 8.05 140.38 8.34 L 139.46 8.44 C 138.85 8.51 138.29 8.6 137.78 8.68 C 137.05 8.8 136.32 8.91 135.62 8.91"/>
  <path class="cls-1" d="M 143.13 3.54 C 143.1 5.29 143.97 7.81 148.36 7.81 C 151.47 7.81 154.6 7.74 154.37 5.55 C 154.19 3.81 152.34 3.28 150.48 3.06 C 148.62 2.84 148.19 1.85 146.34 1.49 C 144.43 1.12 143.15 2.19 143.13 3.54"/>
  <path class="cls-2" d="M 145.61 2.58 C 145.21 2.58 144.87 2.68 144.63 2.87 C 144.42 3.04 144.3 3.28 144.3 3.55 L 144.3 3.55 C 144.29 4.14 144.41 4.98 145.03 5.61 C 145.69 6.28 146.81 6.62 148.35 6.62 L 148.35 6.62 C 149.82 6.62 152.55 6.62 153.13 5.97 C 153.16 5.93 153.22 5.87 153.19 5.65 C 153.16 5.32 153.08 4.54 150.32 4.21 C 149.11 4.07 148.38 3.65 147.73 3.29 C 147.23 3.01 146.8 2.76 146.1 2.63 C 145.92 2.6 145.75 2.58 145.59 2.58 M 148.33 8.97 C 146.13 8.97 144.45 8.39 143.34 7.26 C 142.41 6.31 141.91 4.98 141.94 3.51 C 141.96 2.55 142.39 1.66 143.14 1.05 C 144.02 0.33 145.23 0.07 146.55 0.33 C 147.62 0.53 148.29 0.91 148.89 1.25 C 149.43 1.56 149.86 1.8 150.61 1.89 C 151.75 2.03 155.23 2.44 155.53 5.42 C 155.61 6.24 155.39 6.98 154.87 7.55 C 153.68 8.86 151.32 8.97 148.35 8.97 L 148.34 8.97 Z"/>
  <path class="cls-1" d="M 130.28 21.33 C 132.78 21.63 133.71 21.47 133.1 17.48 C 132.49 13.49 134.11 11.93 131.32 12.27 C 128.54 12.62 126.68 12.4 127.58 16.69 C 128.49 20.99 128.87 21.17 130.27 21.33"/>
  <path class="cls-2" d="M 130.42 20.17 C 131.33 20.28 131.87 20.29 132.02 20.2 C 132.02 20.18 132.27 19.77 131.95 17.66 C 131.71 16.12 131.78 14.93 131.83 14.06 C 131.84 13.85 131.86 13.6 131.86 13.41 C 131.76 13.41 131.64 13.42 131.47 13.45 C 131.22 13.48 130.98 13.51 130.74 13.53 C 129.8 13.63 128.91 13.73 128.69 14.04 C 128.58 14.19 128.37 14.72 128.74 16.46 C 129.5 20.07 129.68 20.09 130.42 20.18 M 131.52 22.62 C 131.05 22.62 130.57 22.56 130.14 22.51 C 127.86 22.24 127.33 21.15 126.44 16.95 C 126.01 14.92 126.12 13.59 126.79 12.67 C 127.62 11.52 129.01 11.37 130.48 11.21 C 130.7 11.19 130.94 11.16 131.18 11.13 C 132.01 11.03 132.93 11.01 133.58 11.61 C 134.28 12.27 134.23 13.17 134.17 14.21 C 134.12 15.02 134.06 16.03 134.26 17.32 C 134.57 19.36 134.6 20.92 133.69 21.86 C 133.1 22.46 132.32 22.62 131.52 22.62"/>
  <path class="cls-1" d="M 125.56 25.91 C 127.55 27.15 127.36 25.31 129.15 24.17 C 130.94 23.03 132.63 22.83 132.77 21.63 C 132.91 20.43 131.24 22.08 129.83 21.28 C 128.42 20.48 128.03 17.68 127.29 19.22 C 126.55 20.76 124.49 21.73 124.69 23.51 C 124.88 25.29 124.48 25.24 125.56 25.91"/>
  <path class="cls-2" d="M 125.94 24.75 C 125.99 24.79 126.07 24.84 126.18 24.91 C 126.38 25.03 126.51 25.09 126.58 25.12 C 126.67 25.03 126.79 24.87 126.88 24.75 C 127.23 24.3 127.71 23.69 128.51 23.18 C 128.93 22.91 129.33 22.7 129.71 22.51 C 129.56 22.45 129.4 22.39 129.25 22.3 C 128.56 21.91 128.09 21.27 127.73 20.69 C 127.47 21.02 127.19 21.32 126.93 21.6 C 126.23 22.35 125.8 22.83 125.86 23.37 C 125.92 23.9 125.93 24.28 125.93 24.57 C 125.93 24.63 125.93 24.69 125.93 24.74 M 126.67 27.48 C 126.19 27.48 125.62 27.32 124.93 26.89 C 123.8 26.19 123.6 25.71 123.58 24.62 C 123.58 24.38 123.57 24.06 123.52 23.62 C 123.34 21.98 124.38 20.88 125.21 19.99 C 125.63 19.54 126.02 19.12 126.23 18.7 C 126.57 17.98 127.05 17.61 127.66 17.58 C 128.58 17.56 129.06 18.33 129.47 19.03 C 129.72 19.46 130.07 20.05 130.4 20.24 C 130.66 20.39 131.05 20.3 131.57 20.15 C 132.1 20 132.83 19.79 133.45 20.32 C 133.72 20.55 134.02 20.99 133.93 21.75 C 133.76 23.19 132.55 23.75 131.38 24.3 C 130.86 24.54 130.32 24.79 129.77 25.14 C 129.31 25.44 129.01 25.81 128.72 26.18 C 128.31 26.71 127.7 27.47 126.67 27.47"/>
  <path class="cls-2" d="M 93.68 21.17 C 94.34 21.13 94.85 20.57 94.81 19.9 C 94.77 19.24 94.21 18.73 93.54 18.77 C 92.88 18.81 92.37 19.37 92.41 20.04 C 92.45 20.7 93.02 21.21 93.68 21.17"/>
  <path class="cls-2" d="M 93.64 19.97 L 93.61 20 C 93.61 20 93.64 19.98 93.64 19.97 M 93.61 22.35 C 92.36 22.35 91.31 21.37 91.24 20.11 C 91.2 19.48 91.42 18.87 91.84 18.39 C 92.26 17.92 92.84 17.64 93.48 17.6 C 94.78 17.52 95.91 18.53 95.98 19.83 C 96.02 20.46 95.8 21.07 95.38 21.54 C 94.96 22.01 94.38 22.29 93.74 22.33 C 93.7 22.33 93.65 22.33 93.61 22.33"/>
  <path class="cls-2" d="M 17.98 100.14 C 16.69 67.84 34.41 37.35 63.12 22.45 L 64.2 24.53 C 36.3 39.01 19.08 68.65 20.33 100.04 L 17.99 100.13 Z"/>
  <rect class="cls-1" x="167.83" y="80.99" width="2.35" height="12.34"/>
  <g>
    <path class="cls-1" d="M175.64,91.91c.73,0,1.33-.59,1.33-1.33s-.6-1.33-1.33-1.33-1.33,.6-1.33,1.33,.6,1.33,1.33,1.33"/>
    <path class="cls-1" d="M175.64,90.42c-.09,0-.16,.07-.16,.16,0,.17,.31,.17,.31,0,0-.09-.07-.16-.16-.16m0,2.66c-1.38,0-2.5-1.12-2.5-2.5s1.12-2.5,2.5-2.5,2.5,1.12,2.5,2.5-1.12,2.5-2.5,2.5"/>
    <path class="cls-1" d="M193.62,38.59c.73,0,1.33-.59,1.33-1.33s-.6-1.33-1.33-1.33-1.33,.6-1.33,1.33,.6,1.33,1.33,1.33"/>
    <path class="cls-1" d="M193.62,37.11c-.09,0-.16,.07-.16,.16,0,.17,.31,.17,.31,0,0-.09-.07-.16-.16-.16m0,2.66c-1.38,0-2.5-1.12-2.5-2.5s1.12-2.5,2.5-2.5,2.5,1.12,2.5,2.5-1.12,2.5-2.5,2.5"/>
    <path class="cls-1" d="M174.62,33.79c.73,0,1.33-.6,1.33-1.33s-.6-1.33-1.33-1.33-1.33,.6-1.33,1.33,.6,1.33,1.33,1.33"/>
    <path class="cls-1" d="M174.62,32.31c-.09,0-.16,.07-.16,.16,0,.17,.31,.17,.31,0,0-.09-.07-.16-.16-.16m0,2.66c-1.38,0-2.5-1.12-2.5-2.5s1.12-2.5,2.5-2.5,2.5,1.12,2.5,2.5-1.12,2.5-2.5,2.5"/>
    <path class="cls-1" d="M193.27,52.15c.73,0,1.33-.59,1.33-1.33s-.6-1.33-1.33-1.33-1.33,.6-1.33,1.33,.6,1.33,1.33,1.33"/>
    <path class="cls-1" d="M193.27,50.66c-.09,0-.16,.07-.16,.16,0,.17,.31,.17,.31,0,0-.09-.07-.16-.16-.16m0,2.66c-1.38,0-2.5-1.12-2.5-2.5s1.12-2.5,2.5-2.5,2.5,1.12,2.5,2.5-1.12,2.5-2.5,2.5"/>
    <path class="cls-1" d="M198.04,44.42c.73,0,1.33-.59,1.33-1.33s-.6-1.33-1.33-1.33-1.33,.6-1.33,1.33,.6,1.33,1.33,1.33"/>
    <path class="cls-1" d="M198.04,42.93c-.09,0-.16,.07-.16,.16,0,.17,.31,.17,.31,0,0-.09-.07-.16-.16-.16m0,2.66c-1.38,0-2.5-1.12-2.5-2.5s1.12-2.5,2.5-2.5,2.5,1.12,2.5,2.5-1.12,2.5-2.5,2.5"/>
    <path class="cls-2" d="M184.48,91.08c.73,0,1.33-.59,1.33-1.33s-.6-1.33-1.33-1.33-1.33,.6-1.33,1.33,.6,1.33,1.33,1.33"/>
    <path class="cls-2" d="M184.48,89.59c-.09,0-.16,.07-.16,.16,0,.17,.31,.17,.31,0,0-.09-.07-.16-.16-.16m0,2.66c-1.38,0-2.5-1.12-2.5-2.5s1.12-2.5,2.5-2.5,2.5,1.12,2.5,2.5-1.12,2.5-2.5,2.5"/>
  </g>
  <polygon class="cls-1" points="164.13 50.71 158.66 45.64 158.66 34.57 161.01 34.57 161.01 44.62 165.73 48.99 164.13 50.71"/>
  <polygon class="cls-1" points="170.18 80.99 167.83 80.99 167.83 64.57 164.08 61.15 164.08 36.13 172.81 40.95 172.81 44.38 170.47 44.38 170.47 42.33 166.43 40.1 166.43 60.12 170.18 63.53 170.18 80.99"/>
  <polygon class="cls-1" points="170.94 71.42 170.94 56.72 173.29 56.72 173.29 65.79 180.39 58.73 180.39 46.22 173.45 42.33 173.45 33.86 175.79 33.86 175.79 40.95 182.74 44.84 182.74 59.7 170.94 71.42"/>
  <polygon class="cls-1" points="188.86 42.95 183.74 42.95 174.32 38.37 175.34 36.26 184.28 40.6 187.96 40.6 191.95 37.06 193.51 38.81 188.86 42.95"/>
  <polygon class="cls-1" points="185.66 83.77 183.31 83.77 183.31 70.27 189.52 63.93 189.52 55.55 196.9 55.55 196.9 44.38 199.24 44.38 199.24 57.89 191.87 57.89 191.87 64.89 185.66 71.23 185.66 83.77"/>
  <rect class="cls-1" x="160.21" y="56.72" width="2.35" height="10.41"/>
  <g>
    <path class="cls-1" d="M161.39,58.58c.73,0,1.33-.59,1.33-1.33s-.6-1.33-1.33-1.33-1.33,.6-1.33,1.33,.6,1.33,1.33,1.33"/>
    <path class="cls-1" d="M161.39,57.1c-.09,0-.16,.07-.16,.16,0,.17,.31,.17,.31,0,0-.09-.07-.16-.16-.16m0,2.66c-1.38,0-2.5-1.12-2.5-2.5s1.12-2.5,2.5-2.5,2.5,1.12,2.5,2.5-1.12,2.5-2.5,2.5"/>
    <path class="cls-1" d="M159.89,35.24c.73,0,1.33-.59,1.33-1.33s-.6-1.33-1.33-1.33-1.33,.6-1.33,1.33,.6,1.33,1.33,1.33"/>
    <path class="cls-1" d="M159.89,33.75c-.09,0-.16,.07-.16,.16,0,.17,.31,.17,.31,0,0-.09-.07-.16-.16-.16m0,2.66c-1.38,0-2.5-1.12-2.5-2.5s1.12-2.5,2.5-2.5,2.5,1.12,2.5,2.5-1.12,2.5-2.5,2.5"/>
    <path class="cls-1" d="M171.68,46.36c.73,0,1.33-.59,1.33-1.33s-.6-1.33-1.33-1.33-1.33,.6-1.33,1.33,.6,1.33,1.33,1.33"/>
    <path class="cls-1" d="M171.68,44.88c-.09,0-.16,.07-.16,.16,0,.17,.31,.17,.31,0,0-.09-.07-.16-.16-.16m0,2.66c-1.38,0-2.5-1.12-2.5-2.5s1.12-2.5,2.5-2.5,2.5,1.12,2.5,2.5-1.12,2.5-2.5,2.5"/>
    <path class="cls-1" d="M172.22,57.23c.73,0,1.33-.59,1.33-1.33s-.6-1.33-1.33-1.33-1.33,.6-1.33,1.33,.6,1.33,1.33,1.33"/>
    <path class="cls-1" d="M172.22,55.74c-.09,0-.16,.07-.16,.16,0,.17,.31,.17,.31,0,0-.09-.07-.16-.16-.16m0,2.66c-1.38,0-2.5-1.12-2.5-2.5s1.12-2.5,2.5-2.5,2.5,1.12,2.5,2.5-1.12,2.5-2.5,2.5"/>
    <path class="cls-1" d="M161.39,67.81c.73,0,1.33-.59,1.33-1.33s-.6-1.33-1.33-1.33-1.33,.6-1.33,1.33,.6,1.33,1.33,1.33"/>
    <path class="cls-1" d="M161.39,66.33c-.09,0-.16,.07-.16,.16,0,.17,.31,.17,.31,0,0-.09-.07-.16-.16-.16m0,2.66c-1.38,0-2.5-1.12-2.5-2.5s1.12-2.5,2.5-2.5,2.5,1.12,2.5,2.5-1.12,2.5-2.5,2.5"/>
  </g>
  <polygon class="cls-1" points="179.14 69.58 177.45 67.96 182.26 62.9 185.03 62.9 185.03 57.96 183.41 56.34 183.3 45.83 188.82 45.83 193.16 49.28 191.71 51.12 188 48.18 185.67 48.18 185.74 55.35 187.38 56.98 187.38 65.24 183.27 65.24 179.14 69.58"/>
  <g>
    <path class="cls-2" d="M102.5,163.63c-37.31,0-67.67-30.36-67.67-67.67,0-24.77,13.52-47.54,35.28-59.42l1.12,2.06c-21.01,11.47-34.05,33.46-34.05,57.37,0,36.02,29.3,65.32,65.32,65.32s65.32-29.3,65.32-65.32h2.35c0,37.31-30.36,67.67-67.67,67.67"/>
    <path class="cls-2" d="M154.12,106.57c.46-.17,.77-.61,.77-1.1v-16.61c0-.49-.31-.93-.77-1.1l-9-3.2h0c-.95-3.34-2.28-6.57-3.96-9.61l4.09-8.6h0c.21-.45,.12-.98-.23-1.33l-11.69-11.69c-.35-.35-.88-.44-1.32-.23l-8.56,4.06h0c-3.07-1.71-6.32-3.06-9.69-4.03l-3.23-8.94c-.17-.47-.61-.78-1.11-.77h-16.6c-.5,0-.94,.3-1.11,.77l-3.17,8.9h0c-3.35,.98-6.58,2.33-9.63,4.03l-8.56-4.06c-.45-.21-.97-.11-1.32,.23l-11.69,11.69c-.35,.35-.45,.89-.23,1.33l4.09,8.6h0c-1.68,3.04-3.01,6.27-3.96,9.61l-9,3.2c-.53,.13-.89,.6-.89,1.15v16.61c0,.49,.31,.93,.77,1.1l9.08,3.24c.96,3.29,2.28,6.45,3.94,9.45l-4.15,8.73c-.21,.45-.12,.98,.23,1.33l11.75,11.69c.35,.34,.88,.43,1.32,.22l8.79-4.17c2.96,1.63,6.1,2.93,9.35,3.87l3.33,9.24c.17,.47,.61,.79,1.11,.78h16.54c.5,0,.94-.31,1.11-.78l3.26-9.18c3.25-.94,6.39-2.23,9.35-3.87l8.79,4.17c.44,.21,.97,.12,1.32-.22l11.69-11.69c.35-.35,.45-.88,.23-1.33l-4.08-8.79c1.66-2.99,2.98-6.16,3.94-9.45l9.08-3.24Zm-11.18,2.02c-.96,3.51-2.37,6.88-4.19,10.03-.18,.34-.18,.75,0,1.09l4.06,8.55-10.52,10.52-8.59-4.08h0c-.34-.18-.75-.18-1.09,0-3.13,1.78-6.47,3.15-9.94,4.1-.37,.1-.67,.38-.8,.74l-3.28,9.07h-14.96l-3.19-8.98c-.13-.36-.43-.63-.79-.74-3.47-.95-6.81-2.33-9.94-4.1-.34-.18-.75-.18-1.09,0l-8.59,4.08-10.52-10.52,4.06-8.55h0c.18-.34,.18-.75,0-1.09-1.81-3.15-3.22-6.52-4.18-10.03-.1-.37-.38-.66-.74-.78l-8.97-3.25v-14.96l8.79-3.17c.36-.13,.64-.43,.74-.8,.96-3.56,2.38-6.99,4.2-10.19,.17-.34,.17-.74,0-1.08l-4-8.4,10.58-10.52,8.36,3.96c.34,.18,.75,.18,1.09,0,3.22-1.86,6.67-3.3,10.26-4.28,.37-.1,.67-.38,.79-.74l3.14-8.75h14.96l3.1,8.69c.13,.36,.42,.64,.79,.74,3.59,.97,7.04,2.41,10.26,4.28,.34,.18,.75,.18,1.09,0l8.36-3.96,10.52,10.52-4,8.4h0c-.18,.34-.18,.74,0,1.08,1.82,3.21,3.23,6.63,4.2,10.19,.1,.37,.37,.67,.74,.8l8.9,3.23v14.96l-8.87,3.16c-.36,.13-.63,.42-.74,.78"/>
    <path class="cls-2" d="M100.83,60.28c-9.69,0-18.98,3.85-25.83,10.7-6.85,6.85-10.7,16.14-10.7,25.83s3.85,18.98,10.7,25.83c6.85,6.85,16.14,10.7,25.83,10.7s18.98-3.85,25.83-10.7c6.85-6.85,10.7-16.14,10.7-25.83-.01-9.68-3.86-18.97-10.71-25.82-6.85-6.85-16.13-10.7-25.82-10.71h0Zm0,70.73c-9.07,0-17.77-3.6-24.18-10.02-6.41-6.41-10.01-15.11-10.01-24.18s3.6-17.76,10.01-24.18c6.41-6.41,15.11-10.02,24.18-10.02s17.77,3.6,24.18,10.02c6.41,6.41,10.01,15.11,10.01,24.18,0,9.07-3.61,17.76-10.03,24.17-6.41,6.41-15.1,10.02-24.17,10.02h0Z"/>
    <path class="cls-2" d="M98.19,91.59c.33,.67,.38,1.45,.15,2.16-.12,.44,.03,.9,.37,1.2,.35,.29,.83,.36,1.24,.17l5.84-2.98c.28-.14,.49-.39,.58-.68,.09-.3,.07-.62-.07-.89l-2.34-4.52h0c.57-.07,1.12-.24,1.64-.5,1.51-.81,2.55-2.28,2.81-3.98,.3-1.8,0-3.66-.86-5.27-.8-1.65-2.13-2.98-3.78-3.79-1.53-.76-3.33-.76-4.86,0-.51,.27-.97,.63-1.37,1.05l-2.2-4.28c-.3-.57-1-.79-1.57-.5l-13.5,7.01c-2.33,1.21-4.08,3.28-4.88,5.78-.8,2.49-.58,5.2,.6,7.54l6.94,13.5h0c.14,.27,.39,.48,.68,.57,.12,.02,.24,.02,.36,0,.19,0,.37-.04,.54-.13l6.63-3.42c.43-.22,.68-.69,.63-1.17-.03-.46-.34-.86-.78-1.02-.72-.23-1.32-.73-1.67-1.39-.42-.89-.4-1.93,.07-2.81,.58-1.17,1.54-2.12,2.71-2.69,2.44-1.16,5.18-.74,6.09,1.04m-7.17-3.02c-1.64,.81-2.96,2.15-3.75,3.8-.76,1.53-.76,3.33,0,4.86,.26,.49,.59,.94,.99,1.32l-3.75,1.93-6.45-12.46c-.92-1.79-1.09-3.88-.47-5.79,.62-1.92,1.97-3.51,3.76-4.43l12.45-6.41,2.65,5.1c.21,.42,.66,.67,1.13,.63,.47-.04,.87-.35,1.02-.8,.21-.74,.69-1.36,1.36-1.74,.9-.42,1.94-.39,2.81,.08,1.18,.57,2.13,1.52,2.7,2.7,.62,1.15,.84,2.47,.63,3.76-.12,.98-.71,1.85-1.57,2.34-.7,.33-1.5,.38-2.23,.13-.45-.15-.95,0-1.25,.36-.31,.36-.36,.88-.14,1.3l2.76,5.35-2.89,1.48c-.08-.55-.25-1.08-.5-1.58-1.48-2.92-5.66-3.79-9.25-1.94"/>
    <path class="cls-1" d="M116.11,88.26c-.31-.03-.61,.05-.85,.24l-5.39,4.31c-.37,.29-.53,.78-.4,1.24,.13,.46,.52,.79,.99,.84,.77,.07,1.49,.44,1.99,1.03,.59,.8,.76,1.82,.48,2.77-.34,1.26-1.08,2.38-2.12,3.18-2.14,1.72-4.91,1.85-6.15,.29-.46-.62-.67-1.39-.58-2.16,.06-.48-.18-.94-.6-1.17-.42-.23-.93-.18-1.3,.12l-5.61,4.52c-.24,.19-.4,.47-.43,.78-.03,.31,.06,.61,.26,.85l3.16,3.94c-.65,.18-1.25,.49-1.78,.91-2.57,2.05-2.59,6.29-.07,9.44h0c1.12,1.44,2.69,2.47,4.45,2.92,1.65,.46,3.42,.11,4.78-.93,.52-.42,.96-.94,1.27-1.53l3.14,3.94c.22,.27,.56,.43,.91,.43,.27,0,.53-.09,.74-.26l11.84-9.49h0c2.05-1.65,3.36-4.04,3.65-6.65,.29-2.61-.47-5.23-2.1-7.29l-9.49-11.87c-.19-.24-.48-.4-.78-.43m10.08,19.31c-.22,2.02-1.25,3.85-2.85,5.1l-10.93,8.77-3.83-4.79c-.22-.28-.56-.44-.91-.44-.12,0-.25,.02-.36,.06-.46,.15-.78,.57-.81,1.05-.02,.88-.41,1.7-1.07,2.27-.79,.59-1.82,.77-2.76,.48-1.26-.33-2.38-1.07-3.18-2.1-1.72-2.15-1.85-4.91-.29-6.16,.7-.52,1.59-.72,2.44-.55,.49,.11,1-.1,1.26-.52,.26-.43,.23-.98-.09-1.36l-3.85-4.79,3.06-2.45h0c.18,.55,.47,1.07,.83,1.52,2.05,2.56,6.29,2.6,9.43,.07h0c1.42-1.13,2.43-2.7,2.88-4.46,.45-1.65,.11-3.41-.94-4.77-.36-.46-.8-.86-1.3-1.17l2.84-2.27,8.76,10.93h0c1.29,1.57,1.9,3.59,1.67,5.61"/>
    <path class="cls-1" d="M169.02,95.82c.73,0,1.33-.59,1.33-1.33s-.6-1.33-1.33-1.33-1.33,.6-1.33,1.33,.6,1.33,1.33,1.33"/>
    <path class="cls-1" d="M169.02,94.33c-.09,0-.16,.07-.16,.16,0,.17,.31,.17,.31,0,0-.09-.07-.16-.16-.16m0,2.66c-1.38,0-2.5-1.12-2.5-2.5s1.12-2.5,2.5-2.5,2.5,1.12,2.5,2.5-1.12,2.5-2.5,2.5"/>
    <path class="cls-1" d="M132.53,165.07l-.96-2.14c26.04-11.71,42.86-37.53,42.86-65.78h.03s-.03,0-.03,0h.03c-.03-.3-.03-.65-.03-1.03v-25.04s3.92-4.08,3.92-4.08l1.69,1.62-3.26,3.4v18.39s0,6.47,0,6.73h0c0,29.17-17.36,55.83-44.24,67.92"/>
  </g>
  <polygon class="cls-2" points="21.19 95.63 19.17 99.8 17.04 95.68 14.81 95.71 19.23 104.27 23.42 95.6 21.19 95.63"/>
  <polygon class="cls-2" points="40.9 149.75 42.58 148.28 33.66 144.64 36.1 153.96 37.78 152.48 36.6 148 40.9 149.75"/>
  <polygon class="cls-1" points="68.18 164.63 67.19 166.63 76.82 166.58 71 158.91 70.01 160.91 72.82 164.6 68.18 164.63"/>
  <polygon class="cls-1" points="136.9 163.99 137.89 165.99 128.26 165.94 134.08 158.27 135.07 160.27 132.26 163.96 136.9 163.99"/>
</svg>